<svg xmlns="http://www.w3.org/2000/svg" version="1.1" xmlns:xlink="http://www.w3.org/1999/xlink" xmlns:svgjs="http://svgjs.dev/svgjs" width="1500" height="1500" viewBox="0 0 1500 1500"><rect width="1500" height="1500" fill="#000000"></rect><g transform="matrix(0.6666666666666666,0,0,0.6666666666666666,249.39393939393938,438.58569500674764)"><svg viewBox="0 0 396 247" data-background-color="#f8f8f8" preserveAspectRatio="xMidYMid meet" height="935" width="1500" xmlns="http://www.w3.org/2000/svg" xmlns:xlink="http://www.w3.org/1999/xlink"><g id="tight-bounds" transform="matrix(1,0,0,1,0.2400000000000091,-0.09999999999999432)"><svg viewBox="0 0 395.52 247.2" height="247.2" width="395.52"><g><svg></svg></g><g><svg viewBox="0 0 395.52 247.2" height="247.2" width="395.52"><g transform="matrix(1,0,0,1,75.54432,54.237338458748866)"><svg viewBox="0 0 244.43135999999998 138.72532308250226" height="138.72532308250226" width="244.43135999999998"><g><svg viewBox="0 0 244.43135999999998 138.72532308250226" height="138.72532308250226" width="244.43135999999998"><g><svg viewBox="0 0 244.43135999999998 138.72532308250226" height="138.72532308250226" width="244.43135999999998"><g><svg viewBox="0 0 244.43135999999998 138.72532308250226" height="138.72532308250226" width="244.43135999999998"><g id="textblocktransform"><svg viewBox="0 0 244.43135999999998 138.72532308250226" height="138.72532308250226" width="244.43135999999998" id="textblock"><g><svg viewBox="0 0 244.43135999999998 138.72532308250226" height="138.72532308250226" width="244.43135999999998"><g transform="matrix(1,0,0,1,0,0)"><svg width="244.43135999999998" viewBox="2.69 -35.4 80.78 45.849999999999994" height="138.72532308250226" data-palette-color="#61777f"><path d="M19.92 0.54L19.92 0.54Q16.06 0.2 12.82-1.45 9.57-3.1 7.37-5.42L7.37-5.42Q2.69-10.38 2.69-17.26L2.69-17.26Q2.69-25.2 8.12-30.3 13.55-35.4 21.66-35.4 29.76-35.4 35.1-30.37 40.43-25.34 40.43-17.5L40.43-17.5Q40.43-8.18 30.93-1.88L30.93-1.88Q30.71-1.73 29.06-0.93 27.42-0.12 27.42-0.01 27.42 0.1 28.94 1.14 30.47 2.17 35.42 6.18L35.42 6.18Q38.4 8.57 40.04 8.9 41.67 9.23 41.67 9.55L41.67 9.55Q41.67 10.16 40.89 10.3 40.11 10.45 38.53 10.45L38.53 10.45Q35.77 10.45 32.42 8.64L32.42 8.64Q26.54 4.76 24.51 2.83 22.49 0.9 20.95 0.66L20.95 0.66Q20.48 0.59 19.92 0.54ZM11.3-29.15Q9.59-27.05 8.68-24.23 7.76-21.41 7.79-18.75L7.79-18.75Q7.84-13.94 9.72-9.97 11.6-6.01 14.98-3.58 18.36-1.15 22.8-1.15L22.8-1.15Q28.25-1.15 31.86-5.41 35.47-9.67 35.47-16.58 35.47-23.49 31.93-28.17L31.93-28.17Q28-33.35 20.95-33.76L20.95-33.76Q15.04-33.76 11.3-29.15L11.3-29.15ZM78.71-30.18L78.71-4.42Q78.71-1.12 83.27-0.98L83.27-0.98Q83.47-0.98 83.47-0.78L83.47-0.78 83.47-0.2Q83.47 0 83.27 0L83.27 0 67.75 0Q67.55 0 67.55-0.2L67.55-0.2 67.55-0.78Q67.55-0.98 68.77-0.98 69.99-0.98 71.56-1.51L71.56-1.51Q73.95-2.29 73.95-4.15L73.95-4.15 73.95-15.8Q73.95-16.04 73.87-16.11 73.8-16.19 73.56-16.19L73.56-16.19 54.32-16.19Q54.07-16.19 54-16.11 53.93-16.04 53.93-15.8L53.93-15.8 53.93-3.91Q53.93-0.98 58.25-0.98L58.25-0.98Q58.44-0.98 58.44-0.78L58.44-0.78 58.44-0.2Q58.44 0 58.27 0L58.27 0 44.8 0Q44.6 0 44.6-0.2L44.6-0.2 44.6-0.78Q44.6-0.98 45.09-0.98L45.09-0.98Q49.17-0.98 49.17-4.47L49.17-4.47 49.17-30.52Q49.17-33.37 45.77-33.54L45.77-33.54Q45.26-33.57 45.26-33.76L45.26-33.76 45.26-34.23Q45.26-34.42 45.43-34.42L45.43-34.42 57.69-34.42Q57.88-34.42 57.88-34.23L57.88-34.23 57.88-33.76Q57.88-33.62 57.42-33.62L57.42-33.62Q53.93-33.62 53.93-30.18L53.93-30.18 53.93-18.9Q53.93-18.65 54-18.58 54.07-18.51 54.32-18.51L54.32-18.51 73.56-18.51Q73.8-18.51 73.87-18.58 73.95-18.65 73.95-18.9L73.95-18.9 73.95-30.57Q73.9-30.79 73.89-30.97 73.87-31.15 73.8-31.54L73.8-31.54Q73.63-32.37 72.07-32.9 70.51-33.42 68.53-33.57L68.53-33.57Q68.33-33.57 68.33-33.76L68.33-33.76 68.33-34.23Q68.33-34.42 68.5-34.42L68.5-34.42 82.59-34.42Q82.79-34.42 82.79-34.23L82.79-34.23 82.79-33.76Q82.79-33.62 82.32-33.62L82.32-33.62Q78.71-33.62 78.71-30.18L78.71-30.18Z" opacity="1" transform="matrix(1,0,0,1,0,0)" fill="#ffffff" class="wordmark-text-0" data-fill-palette-color="primary" id="text-0"></path></svg></g></svg></g></svg></g></svg></g></svg></g></svg></g></svg></g><g><path d="M245.816 0c68.262 0 123.6 55.338 123.6 123.6 0 68.262-55.338 123.6-123.6 123.6-34.968 0-66.545-14.521-89.029-37.862h8.91c20.972 19.606 49.144 31.607 80.119 31.607 64.808 0 117.345-52.537 117.344-117.345 0-64.808-52.537-117.345-117.344-117.345-30.975 0-59.146 12.001-80.119 31.607l-8.91 0c22.484-23.341 54.06-37.862 89.029-37.862z" fill="#ffffff" stroke="transparent" data-fill-palette-color="tertiary"></path></g></svg></g><defs></defs></svg><rect width="395.52" height="247.2" fill="none" stroke="none" visibility="hidden"></rect></g></svg></g></svg>