<svg xmlns="http://www.w3.org/2000/svg" version="1.1" xmlns:xlink="http://www.w3.org/1999/xlink" xmlns:svgjs="http://svgjs.dev/svgjs" width="1500" height="1500" viewBox="0 0 1500 1500"><rect width="1500" height="1500" fill="#ffffff"></rect><g transform="matrix(0.6666666666666666,0,0,0.6666666666666666,249.39393939393932,662.6846443732255)"><svg viewBox="0 0 396 69" data-background-color="#ffffff" preserveAspectRatio="xMidYMid meet" height="261" width="1500" xmlns="http://www.w3.org/2000/svg" xmlns:xlink="http://www.w3.org/1999/xlink"><g id="tight-bounds" transform="matrix(1,0,0,1,0.24000000000003752,0.1250548175140409)"><svg viewBox="0 0 395.5199999999999 68.7498903649719" height="68.7498903649719" width="395.5199999999999"><g><svg viewBox="0 0 500.5605283337811 87.00819539841189" height="68.7498903649719" width="395.5199999999999"><g transform="matrix(1,0,0,1,105.04052833378117,24.408199624677735)"><svg viewBox="0 0 395.52 38.191796149056415" height="38.191796149056415" width="395.52"><g id="textblocktransform"><svg viewBox="0 0 395.52 38.191796149056415" height="38.191796149056415" width="395.52" id="textblock"><g><svg viewBox="0 0 395.52 38.191796149056415" height="38.191796149056415" width="395.52"><g transform="matrix(1,0,0,1,0,0)"><svg width="395.52" viewBox="4.3 -38 521.9000000000001 50.4" height="38.191796149056415" data-palette-color="#556970"><path d="M35.5 4.65L35.5 4.65Q36.1 5.4 36.1 6.23 36.1 7.05 35.8 7.8 35.5 8.55 34.75 9.3L34.75 9.3Q33 10.95 29.6 10.95 26.2 10.95 22.55 9.03 18.9 7.1 16.63 4.63 14.35 2.15 14.35 0.35L14.35 0.35Q14.35-0.3 15.1-0.8 15.85-1.3 18.1-1.95L18.1-1.95Q23.8-3.6 27.3-8.03 30.8-12.45 30.8-19.2 30.8-25.95 27.53-29.58 24.25-33.2 19.4-33.2 14.55-33.2 11.68-29.58 8.8-25.95 8.8-20.33 8.8-14.7 11.23-11.63 13.65-8.55 17.9-8.45L17.9-8.45Q17.6-7.2 16.65-6.4 15.7-5.6 14.2-5.6L14.2-5.6Q10.25-5.6 7.28-9.4 4.3-13.2 4.3-18.65L4.3-18.65Q4.3-26.2 8.83-31.23 13.35-36.25 20.05-36.25 26.75-36.25 31.1-31.8 35.45-27.35 35.45-20.2L35.45-20.2Q35.45-11.45 30.53-6.13 25.6-0.8 17.75 1L17.75 1Q20.1 3.65 23.53 5.18 26.95 6.7 30.13 6.7 33.3 6.7 35.5 4.65ZM58.42-20.38Q56.15-23 52.7-23 49.25-23 47.35-20.63 45.45-18.25 45.45-13.65L45.45-13.65Q45.45-7.7 47.77-5.03 50.1-2.35 53.55-2.35 57-2.35 58.85-4.75 60.7-7.15 60.7-11.75L60.7-11.75Q60.7-17.75 58.42-20.38ZM44.67-22.4Q48.15-25.85 53.1-25.85 58.05-25.85 61.52-22.38 65-18.9 65-12.68 65-6.45 61.52-3 58.05 0.45 53.1 0.45 48.15 0.45 44.67-3 41.2-6.45 41.2-12.7 41.2-18.95 44.67-22.4ZM88.52-18.98Q87.7-18.3 86.55-18.3 85.4-18.3 84.6-18.9L84.6-18.9Q84.9-19.4 84.9-20.35 84.9-21.3 83.75-22.2 82.6-23.1 80.3-23.1 78-23.1 76.65-22.08 75.3-21.05 75.3-19.65 75.3-18.25 76.8-17.13 78.3-16 80.4-15.08 82.5-14.15 84.62-13.1 86.75-12.05 88.25-10.43 89.75-8.8 89.75-6.8L89.75-6.8Q89.75-3.85 86.95-1.7 84.15 0.45 79.85 0.45 75.55 0.45 72.85-1.2 70.15-2.85 70.15-5.45L70.15-5.45Q70.15-7 71.02-7.88 71.9-8.75 73.12-8.75 74.35-8.75 75.05-7.9L75.05-7.9Q74.35-6.95 74.35-5.6 74.35-4.25 75.72-3.28 77.1-2.3 79.72-2.3 82.35-2.3 83.92-3.43 85.5-4.55 85.5-6.18 85.5-7.8 84.02-9 82.55-10.2 80.45-11.08 78.35-11.95 76.22-12.93 74.1-13.9 72.62-15.4 71.15-16.9 71.15-18.8L71.15-18.8Q71.15-21.8 73.75-23.83 76.35-25.85 80.12-25.85 83.9-25.85 86.6-24.48 89.3-23.1 89.3-20.85L89.3-20.85Q89.35-19.65 88.52-18.98ZM99.32-36.5Q100.59-36.5 101.42-35.77 102.24-35.05 102.24-33.77 102.24-32.5 101.17-31.48 100.09-30.45 98.74-30.45 97.39-30.45 96.54-31.25 95.69-32.05 95.69-33.35 95.69-34.65 96.87-35.58 98.04-36.5 99.32-36.5ZM101.24-22.35L101.24-22.35 101.24-3.1Q101.24-1.65 102.49-1.15L102.49-1.15Q101.44 0.45 99.89 0.45L99.89 0.45Q97.09 0.45 97.09-3.05L97.09-3.05 97.09-22.25Q97.09-23.7 95.84-24.25L95.84-24.25Q96.79-25.85 98.44-25.85L98.44-25.85Q101.24-25.85 101.24-22.35ZM147.64-17.25L147.64-17.25 147.64-3.1Q147.64-1.7 148.89-1.15L148.89-1.15Q147.99 0.45 146.29 0.45L146.29 0.45Q143.49 0.45 143.49-3.05L143.49-3.05 143.49-16.95Q143.49-22.2 138.89-22.2L138.89-22.2Q136.39-22.2 134.14-20.15 131.89-18.1 131.04-14.65L131.04-14.65 131.04-3.1Q131.04-1.7 132.34-1.15L132.34-1.15Q131.29 0.45 129.69 0.45L129.69 0.45Q126.94 0.45 126.94-3.05L126.94-3.05 126.94-16.95Q126.94-22.2 122.34-22.2L122.34-22.2Q119.84-22.2 117.59-20.2 115.34-18.2 114.49-14.85L114.49-14.85 114.49-3.1Q114.49-1.65 115.74-1.15L115.74-1.15Q114.69 0.45 113.14 0.45L113.14 0.45Q110.34 0.45 110.34-3.05L110.34-3.05 110.34-22.25Q110.34-23.7 109.09-24.25L109.09-24.25Q110.04-25.85 111.69-25.85L111.69-25.85Q114.49-25.85 114.49-22.35L114.49-22.35 114.49-19.75Q115.79-22.45 118.19-24.15 120.59-25.85 123.59-25.85 126.59-25.85 128.52-24.2 130.44-22.55 130.89-19.25L130.89-19.25Q132.04-22.1 134.54-23.98 137.04-25.85 140.31-25.85 143.59-25.85 145.62-23.68 147.64-21.5 147.64-17.25ZM160.89-22.35L160.89-22.35 160.89 6.35Q160.89 9.35 159.61 10.88 158.34 12.4 156.39 12.4L156.39 12.4Q153.84 12.4 152.54 9.85L152.54 9.85Q154.89 9.85 155.81 8.83 156.74 7.8 156.74 5.4L156.74 5.4 156.74-22.25Q156.74-23.7 155.49-24.25L155.49-24.25Q156.44-25.85 158.09-25.85L158.09-25.85Q160.89-25.85 160.89-22.35ZM158.96-36.5Q160.24-36.5 161.06-35.77 161.89-35.05 161.89-33.77 161.89-32.5 160.81-31.48 159.74-30.45 158.39-30.45 157.04-30.45 156.19-31.25 155.34-32.05 155.34-33.35 155.34-34.65 156.51-35.58 157.69-36.5 158.96-36.5ZM185.11-20.38Q182.84-23 179.39-23 175.94-23 174.04-20.63 172.14-18.25 172.14-13.65L172.14-13.65Q172.14-7.7 174.46-5.03 176.79-2.35 180.24-2.35 183.69-2.35 185.54-4.75 187.39-7.15 187.39-11.75L187.39-11.75Q187.39-17.75 185.11-20.38ZM171.36-22.4Q174.84-25.85 179.79-25.85 184.74-25.85 188.21-22.38 191.69-18.9 191.69-12.68 191.69-6.45 188.21-3 184.74 0.45 179.79 0.45 174.84 0.45 171.36-3 167.89-6.45 167.89-12.7 167.89-18.95 171.36-22.4ZM219.38-17.25L219.38-17.25 219.38-3.1Q219.38-1.7 220.68-1.15L220.68-1.15Q219.63 0.45 218.03 0.45L218.03 0.45Q215.28 0.45 215.28-3.05L215.28-3.05 215.28-16.95Q215.28-22.2 210.68-22.2L210.68-22.2Q208.18-22.2 205.93-20.2 203.68-18.2 202.83-14.85L202.83-14.85 202.83-3.1Q202.83-1.65 204.08-1.15L204.08-1.15Q203.03 0.45 201.48 0.45L201.48 0.45Q198.68 0.45 198.68-3.05L198.68-3.05 198.68-22.25Q198.68-23.7 197.43-24.25L197.43-24.25Q198.38-25.85 200.03-25.85L200.03-25.85Q202.83-25.85 202.83-22.35L202.83-22.35 202.83-19.75Q204.13-22.45 206.53-24.15 208.93-25.85 212.16-25.85 215.38-25.85 217.38-23.68 219.38-21.5 219.38-17.25ZM243.51-20.38Q241.23-23 237.78-23 234.33-23 232.43-20.63 230.53-18.25 230.53-13.65L230.53-13.65Q230.53-7.7 232.86-5.03 235.18-2.35 238.63-2.35 242.08-2.35 243.93-4.75 245.78-7.15 245.78-11.75L245.78-11.75Q245.78-17.75 243.51-20.38ZM229.76-22.4Q233.23-25.85 238.18-25.85 243.13-25.85 246.61-22.38 250.08-18.9 250.08-12.68 250.08-6.45 246.61-3 243.13 0.45 238.18 0.45 233.23 0.45 229.76-3 226.28-6.45 226.28-12.7 226.28-18.95 229.76-22.4ZM265.48-2.5L272.48-20.9Q272.93-22.1 272.93-23.15 272.93-24.2 272.23-24.95L272.23-24.95Q273.38-25.85 274.45-25.85 275.53-25.85 276.23-25.15 276.93-24.45 276.93-23.38 276.93-22.3 276.33-20.9L276.33-20.9 269.18-3.1Q268.43-1.15 267.63-0.38 266.83 0.4 265.4 0.4 263.98 0.4 263.13-0.4 262.28-1.2 261.63-3.1L261.63-3.1 255.28-21.65Q254.63-23.4 253.23-23.5L253.23-23.5Q253.28-24.55 254.08-25.2 254.88-25.85 255.93-25.85L255.93-25.85Q258.43-25.85 259.48-22.45L259.48-22.45 265.48-2.5ZM323.97-32.8L323.97-32.8 323.97-3.1Q323.97-1.65 325.22-1.15L325.22-1.15Q324.22 0.45 322.62 0.45L322.62 0.45Q319.82 0.45 319.82-3.05L319.82-3.05 319.82-16.4 300.57-16.4 300.57-3.1Q300.57-1.7 301.77-1.15L301.77-1.15Q300.77 0.45 299.12 0.45L299.12 0.45Q296.37 0.45 296.37-3.05L296.37-3.05 296.37-32.75Q296.37-34.15 295.12-34.7L295.12-34.7Q296.02-36.25 297.72-36.25L297.72-36.25Q300.57-36.25 300.57-32.8L300.57-32.8 300.57-19.45 319.82-19.45 319.82-32.75Q319.82-34.15 318.57-34.7L318.57-34.7Q319.47-36.25 321.17-36.25L321.17-36.25Q323.97-36.25 323.97-32.8ZM336.17-6.4L336.17-6.4Q336.17-2.8 340.1-2.8 344.02-2.8 346.57-6.25L346.57-6.25 346.57-12.2Q341.27-11.9 338.72-10.33 336.17-8.75 336.17-6.4ZM350.72-17.8L350.72-17.8 350.72-4.5Q350.72-1.85 353.17-1.5L353.17-1.5Q352.22 0.45 350.02 0.45L350.02 0.45Q346.87 0.45 346.57-3.6L346.57-3.6Q343.67 0.45 338.77 0.45L338.77 0.45Q335.67 0.45 333.67-1.25 331.67-2.95 331.67-5.95L331.67-5.95Q331.67-9.65 335.4-11.93 339.12-14.2 346.57-14.4L346.57-14.4 346.57-17.4Q346.57-20.5 345.47-21.98 344.37-23.45 342-23.45 339.62-23.45 338.42-22.48 337.22-21.5 337.22-20.28 337.22-19.05 337.92-18.3L337.92-18.3Q336.87-17.5 335.6-17.5 334.32-17.5 333.52-18.2 332.72-18.9 332.72-20.2L332.72-20.2Q332.72-22.55 335.42-24.2 338.12-25.85 342.07-25.85 346.02-25.85 348.37-23.73 350.72-21.6 350.72-17.8ZM397.22-17.25L397.22-17.25 397.22-3.1Q397.22-1.7 398.47-1.15L398.47-1.15Q397.57 0.45 395.87 0.45L395.87 0.45Q393.07 0.45 393.07-3.05L393.07-3.05 393.07-16.95Q393.07-22.2 388.47-22.2L388.47-22.2Q385.97-22.2 383.72-20.15 381.47-18.1 380.62-14.65L380.62-14.65 380.62-3.1Q380.62-1.7 381.92-1.15L381.92-1.15Q380.87 0.45 379.27 0.45L379.27 0.45Q376.52 0.45 376.52-3.05L376.52-3.05 376.52-16.95Q376.52-22.2 371.92-22.2L371.92-22.2Q369.42-22.2 367.17-20.2 364.92-18.2 364.07-14.85L364.07-14.85 364.07-3.1Q364.07-1.65 365.32-1.15L365.32-1.15Q364.27 0.45 362.72 0.45L362.72 0.45Q359.92 0.45 359.92-3.05L359.92-3.05 359.92-22.25Q359.92-23.7 358.67-24.25L358.67-24.25Q359.62-25.85 361.27-25.85L361.27-25.85Q364.07-25.85 364.07-22.35L364.07-22.35 364.07-19.75Q365.37-22.45 367.77-24.15 370.17-25.85 373.17-25.85 376.17-25.85 378.09-24.2 380.02-22.55 380.47-19.25L380.47-19.25Q381.62-22.1 384.12-23.98 386.62-25.85 389.89-25.85 393.17-25.85 395.19-23.68 397.22-21.5 397.22-17.25ZM408.54-36.5Q409.82-36.5 410.64-35.77 411.47-35.05 411.47-33.77 411.47-32.5 410.39-31.48 409.32-30.45 407.97-30.45 406.62-30.45 405.77-31.25 404.92-32.05 404.92-33.35 404.92-34.65 406.09-35.58 407.27-36.5 408.54-36.5ZM410.47-22.35L410.47-22.35 410.47-3.1Q410.47-1.65 411.72-1.15L411.72-1.15Q410.67 0.45 409.12 0.45L409.12 0.45Q406.32 0.45 406.32-3.05L406.32-3.05 406.32-22.25Q406.32-23.7 405.07-24.25L405.07-24.25Q406.02-25.85 407.67-25.85L407.67-25.85Q410.47-25.85 410.47-22.35ZM435.01-8.5L435.01-20.65Q432.76-22.75 429.54-22.75 426.31-22.75 424.04-19.98 421.76-17.2 421.76-12.4 421.76-7.6 423.74-5.2 425.71-2.8 428.71-2.8L428.71-2.8Q433.76-2.8 435.01-8.5L435.01-8.5ZM439.21-34.55L439.21-34.55 439.21-3.1Q439.21-1.65 440.46-1.15L440.46-1.15Q439.41 0.45 437.81 0.45L437.81 0.45Q435.01 0.45 435.01-3.05L435.01-3.05 435.01-3.85Q432.76 0.45 427.81 0.45L427.81 0.45Q423.61 0.45 420.46-2.93 417.31-6.3 417.31-12.28 417.31-18.25 420.71-22.05 424.11-25.85 428.91-25.85L428.91-25.85Q432.31-25.85 435.01-24.15L435.01-24.15 435.01-34.45Q435.01-35.95 433.76-36.45L433.76-36.45Q434.71-38 436.36-38L436.36-38Q439.21-38 439.21-34.55ZM468.91-22.35L468.91-22.35 468.91-3.1Q468.91-1.7 470.21-1.15L470.21-1.15Q469.16 0.45 467.56 0.45L467.56 0.45Q464.81 0.45 464.81-3.05L464.81-3.05 464.81-4.35Q462.01 0.45 456.66 0.45L456.66 0.45Q448.21 0.45 448.21-8.15L448.21-8.15 448.21-22.25Q448.21-23.7 446.96-24.25L446.96-24.25Q447.91-25.85 449.56-25.85L449.56-25.85Q452.36-25.85 452.36-22.35L452.36-22.35 452.36-8.4Q452.36-3.1 457.56-3.1L457.56-3.1Q459.96-3.1 461.89-4.55 463.81-6 464.81-8.6L464.81-8.6 464.81-22.25Q464.81-23.7 463.51-24.25L463.51-24.25Q464.66-25.85 466.16-25.85L466.16-25.85Q468.91-25.85 468.91-22.35ZM482.06-34.55L482.06-34.55 482.06-3.1Q482.06-1.65 483.31-1.15L483.31-1.15Q482.26 0.45 480.71 0.45L480.71 0.45Q477.91 0.45 477.91-3.05L477.91-3.05 477.91-34.45Q477.91-35.9 476.66-36.45L476.66-36.45Q477.51-38 479.26-38L479.26-38Q482.06-38 482.06-34.55ZM495.36-34.55L495.36-34.55 495.36-3.1Q495.36-1.65 496.61-1.15L496.61-1.15Q495.56 0.45 494.01 0.45L494.01 0.45Q491.21 0.45 491.21-3.05L491.21-3.05 491.21-34.45Q491.21-35.9 489.96-36.45L489.96-36.45Q490.81-38 492.56-38L492.56-38Q495.36-38 495.36-34.55ZM519.63-20.38Q517.35-23 513.9-23 510.45-23 508.55-20.63 506.65-18.25 506.65-13.65L506.65-13.65Q506.65-7.7 508.98-5.03 511.3-2.35 514.75-2.35 518.2-2.35 520.05-4.75 521.9-7.15 521.9-11.75L521.9-11.75Q521.9-17.75 519.63-20.38ZM505.88-22.4Q509.35-25.85 514.3-25.85 519.25-25.85 522.73-22.38 526.2-18.9 526.2-12.68 526.2-6.45 522.73-3 519.25 0.45 514.3 0.45 509.35 0.45 505.88-3 502.4-6.45 502.4-12.7 502.4-18.95 505.88-22.4Z" opacity="1" transform="matrix(1,0,0,1,0,0)" fill="#000000" class="wordmark-text-0" data-fill-palette-color="primary" id="text-0"></path></svg></g></svg></g></svg></g></svg></g><g><svg viewBox="0 0 87.00819539841189 87.00819539841189" height="87.00819539841189" width="87.00819539841189"><g><svg></svg></g><g id="icon-0"><svg viewBox="0 0 87.00819539841189 87.00819539841189" height="87.00819539841189" width="87.00819539841189"><g><path d="M0 43.504c0-24.027 19.477-43.504 43.504-43.504 24.027 0 43.504 19.477 43.504 43.504 0 24.027-19.477 43.504-43.504 43.504-24.027 0-43.504-19.477-43.504-43.504zM43.504 83.564c22.124 0 40.06-17.935 40.06-40.06 0-22.124-17.935-40.06-40.06-40.06-22.124 0-40.06 17.935-40.06 40.06 0 22.124 17.935 40.06 40.06 40.06z" data-fill-palette-color="accent" fill="#000000" stroke="transparent"></path></g><g transform="matrix(1,0,0,1,23.795606206019606,23.81940873197756)"><svg viewBox="0 0 39.41698298637267 39.369377934456764" height="39.369377934456764" width="39.41698298637267"><g><svg xmlns="http://www.w3.org/2000/svg" xmlns:xlink="http://www.w3.org/1999/xlink" version="1.1" x="0" y="0" viewBox="3.7 4.3 82.8 82.7" enable-background="new 0 0 90 90" xml:space="preserve" height="39.369377934456764" width="39.41698298637267" class="icon-cg-0" data-fill-palette-color="accent" id="cg-0"><g fill="#aba944" data-fill-palette-color="accent"><path fill="#000000" d="M45.1 87C22.3 87 3.8 68.5 3.8 45.7S22.3 4.3 45.1 4.3c22.8 0 41.4 18.6 41.4 41.4S67.9 87 45.1 87zM45.1 6.3C23.4 6.3 5.8 23.9 5.8 45.7 5.8 67.4 23.4 85 45.1 85c21.7 0 39.4-17.7 39.4-39.4C84.5 23.9 66.8 6.3 45.1 6.3z" data-fill-palette-color="accent"></path><path fill="#000000" d="M45 87c-12 0-22.4-18.6-22.4-41.4S33 4.3 45 4.3v2c-11 0-20.4 17.7-20.4 39.4C24.6 67.4 34 85 45 85V87z" data-fill-palette-color="accent"></path><path fill="#000000" d="M45 87v-2c11 0 20.4-17.7 20.4-39.4C65.4 23.9 56 6.3 45 6.3v-2c12 0 22.4 18.6 22.4 41.4S57 87 45 87z" data-fill-palette-color="accent"></path><path fill="#000000" d="M43 87v-2c0 0-0.6 0.2-0.7 0.2 0.9-1.4 2.2-15.9 2.2-39.6S43.3 7.4 42.4 6C42.4 6.1 43 6.3 43 6.3v-2c1 0 1.9 0 2.8 12.8 0.5 7.6 0.7 17.8 0.7 28.6s-0.2 21-0.7 28.6C45 87 44 87 43 87z" data-fill-palette-color="accent"></path><path fill="#000000" d="M86.4 43h-2c0-11-17.7-20.4-39.4-20.4C23.4 22.6 5.7 32 5.7 43h-2c0-12 18.6-22.4 41.4-22.4C67.9 20.6 86.4 31 86.4 43z" data-fill-palette-color="accent"></path><path fill="#000000" d="M86.4 44h-2c0-2-13.5-5.7-39.4-5.7C19.2 38.3 5.7 42 5.7 44h-2c0-7 27.1-7.7 41.4-7.7C59.4 36.3 86.4 37 86.4 44z" data-fill-palette-color="accent"></path><path fill="#000000" d="M45.1 73.4C22.3 73.4 3.7 63 3.7 51h2c0 11 17.7 20.4 39.4 20.4 21.7 0 39.4-9.4 39.4-20.4h2C86.4 63 67.9 73.4 45.1 73.4z" data-fill-palette-color="accent"></path><path fill="#000000" d="M45.1 57.3C25 57.3 3.7 54 3.7 47h2c0 2 2.9 3.8 11 5.6 7.6 1.7 17.6 2.7 28.3 2.7 10.7 0 20.8-1 28.3-2.7 8.1-1.9 11-3.6 11-5.6h2C86.4 54 65.1 57.3 45.1 57.3z" data-fill-palette-color="accent"></path></g></svg></g></svg></g></svg></g></svg></g></svg></g><defs></defs></svg><rect width="395.5199999999999" height="68.7498903649719" fill="none" stroke="none" visibility="hidden"></rect></g></svg></g></svg>